<svg width="50" height="47" viewBox="0 0 50 47" fill="none" xmlns="http://www.w3.org/2000/svg">
<path d="M25.8223 20.1415V28.2H40.0014C39.4285 31.6565 35.7181 38.3324 25.8223 38.3324C17.291 38.3324 10.3243 31.6956 10.3243 23.5C10.3243 15.3044 17.2931 8.66758 25.8223 8.66758C30.6764 8.66758 33.9285 10.6044 35.791 12.2885L42.5702 6.14329C38.216 2.32258 32.5702 0 25.8223 0C11.9993 0 0.822266 10.5065 0.822266 23.5C0.822266 36.4935 11.9993 47 25.8223 47C40.2514 47 49.8223 37.4649 49.8223 24.0366C49.8223 22.4934 49.6452 21.3145 49.4285 20.1415H25.8223Z" fill="white"/>
</svg>
