<svg width="49" height="49" viewBox="0 0 49 49" fill="none" xmlns="http://www.w3.org/2000/svg">
<path d="M41.7503 41.7513H34.4901V30.381C34.4901 27.6697 34.4417 24.1793 30.714 24.1793C26.9326 24.1793 26.354 27.1335 26.354 30.1836V41.7505H19.0937V18.3687H26.0636V21.564H26.1612C26.8587 20.3714 27.8666 19.3902 29.0776 18.7251C30.2886 18.06 31.6574 17.7358 33.038 17.7871C40.3966 17.7871 41.7534 22.6274 41.7534 28.9244L41.7503 41.7513ZM10.9017 15.1725C10.0684 15.1727 9.25379 14.9257 8.56085 14.4629C7.8679 14 7.3278 13.3421 7.00878 12.5722C6.68975 11.8024 6.60614 10.9553 6.76856 10.1379C6.93098 9.32057 7.33213 8.56975 7.92126 7.98039C8.51038 7.39103 9.26104 6.98961 10.0783 6.82689C10.8956 6.66417 11.7427 6.74746 12.5126 7.06622C13.2825 7.38498 13.9406 7.9249 14.4037 8.6177C14.8668 9.3105 15.1141 10.1251 15.1142 10.9584C15.1143 11.5117 15.0054 12.0596 14.7938 12.5708C14.5821 13.0821 14.2719 13.5466 13.8807 13.9379C13.4896 14.3292 13.0251 14.6397 12.514 14.8515C12.0029 15.0633 11.455 15.1724 10.9017 15.1725ZM14.5319 41.7513H7.26404V18.3687H14.5319V41.7513ZM45.3699 0.00333845H3.61577C2.66807 -0.00735671 1.75485 0.358646 1.07686 1.02092C0.398864 1.68319 0.0115662 2.58755 0 3.53528V45.464C0.0111703 46.4122 0.398241 47.3172 1.07621 47.9801C1.75418 48.6431 2.6676 49.0098 3.61577 48.9997H45.3699C46.3199 49.0116 47.2359 48.646 47.9165 47.983C48.5972 47.3201 48.9868 46.4141 49 45.464V3.53225C48.9865 2.58265 48.5965 1.67726 47.9158 1.015C47.2352 0.352745 46.3195 -0.0122121 45.3699 0.000312011" fill="#0A66C2"/>
</svg>
