<svg width="30" height="23" viewBox="0 0 30 23" fill="none" xmlns="http://www.w3.org/2000/svg">
<path d="M0 11.5001V22.6001L14.8 22.3001L29.5 22.0001V11.5001V1.0001L14.8 0.700098L0 0.400097V11.5001ZM20.2 8.7001C14.6 14.5001 14.6 14.5001 8.9 7.3001L5.8 3.5001H15.5H25.2L20.2 8.7001ZM5.2 14.7001L2 18.0001V11.5001V5.0001L5.2 8.3001L8.5 11.5001L5.2 14.7001ZM28 11.7001V18.0001L24.8 14.8001L21.6 11.5001L24.5 8.5001C26.1 6.9001 27.5 5.5001 27.7 5.5001C27.9 5.5001 28 8.3001 28 11.7001ZM13 15.7001C14.5 16.6001 15.4 16.6001 17.3 15.6001C19.5 14.4001 20 14.6001 22.3 16.9001L24.9 19.5001H15.3H5.7L8 17.0001C10.7 14.1001 10.5 14.2001 13 15.7001Z" fill="white"/>
</svg>
