<svg width="36" height="27" viewBox="0 0 36 27" fill="none" xmlns="http://www.w3.org/2000/svg">
<path fill-rule="evenodd" clip-rule="evenodd" d="M2.22461 12.3508C2.22461 9.83769 3.65164 7.46743 6.15006 5.68606C8.64645 3.90614 12.1466 2.77393 16.059 2.77393C19.9715 2.77393 23.4716 3.90614 25.968 5.68606C28.4665 7.46743 29.8935 9.83769 29.8935 12.3508C29.8935 14.8197 28.5163 17.1507 26.0991 18.9209C26.0002 18.9688 25.9083 19.0334 25.8279 19.1141C23.3415 20.8372 19.8988 21.9278 16.059 21.9278C12.1466 21.9278 8.64645 20.7956 6.15006 19.0156C3.65164 17.2343 2.22461 14.864 2.22461 12.3508ZM26.5336 21.0475C23.7263 22.8534 20.0506 23.9278 16.059 23.9278C11.7786 23.9278 7.86159 22.6923 4.98897 20.6441C2.11838 18.5974 0.224609 15.6792 0.224609 12.3508C0.224609 9.02253 2.11838 6.10433 4.98897 4.05761C7.86159 2.00944 11.7786 0.773926 16.059 0.773926C20.3395 0.773926 24.2565 2.00944 27.1291 4.05761C29.9997 6.10433 31.8935 9.02253 31.8935 12.3508C31.8935 15.2396 30.4669 17.8195 28.2132 19.7887L35.1825 24.7578C35.6321 25.0784 35.7368 25.7029 35.4161 26.1525C35.0955 26.6022 34.4711 26.7068 34.0214 26.3862L26.5336 21.0475Z" fill="#5E5C64"/>
</svg>
