<svg width="29" height="31" viewBox="0 0 29 31" fill="none" xmlns="http://www.w3.org/2000/svg">
<path d="M2.86569 1.81875C0.465685 3.11875 0.365685 3.51875 0.0656854 15.2188C-0.134315 25.6188 0.0656855 27.5187 1.46569 28.7188C3.86569 30.7188 23.8657 30.7188 26.1657 28.7188C28.6657 26.7188 28.6657 4.51875 26.1657 2.51875C23.8657 0.61875 6.26569 0.11875 2.86569 1.81875ZM22.7657 4.51875C23.8657 5.21875 23.6657 5.51875 21.7657 6.11875C18.3657 7.31875 7.46569 7.01875 5.26569 5.81875C3.56569 4.91875 3.66569 4.71875 6.36569 4.11875C8.06569 3.71875 9.86569 3.31875 10.3657 3.01875C11.8657 2.51875 21.0657 3.61875 22.7657 4.51875ZM24.8657 10.1187C24.8657 12.0187 22.3657 13.2188 16.6657 14.0187C12.2657 14.7188 11.8657 14.6187 11.8657 12.7188C11.8657 11.5187 11.2657 10.5187 10.6657 10.4187C9.96569 10.3188 12.5657 10.0187 16.3657 9.61875C20.2657 9.21875 23.6657 8.91875 24.1657 8.81875C24.5657 8.71875 24.8657 9.31875 24.8657 10.1187ZM24.8657 17.1187C24.8657 19.0188 22.3657 20.2188 16.6657 21.0188C12.2657 21.7188 11.8657 21.6187 11.8657 19.7188C11.8657 18.4187 11.1657 17.5188 10.1657 17.4187C9.16569 17.3187 11.7657 17.0188 15.8657 16.6187C19.9657 16.2188 23.6657 15.9187 24.1657 15.8187C24.5657 15.7188 24.8657 16.3187 24.8657 17.1187ZM24.8657 24.1188C24.8657 26.1188 22.3657 27.2188 16.1657 28.1187C11.2657 28.7188 11.0657 28.7188 11.5657 26.7188C11.9657 25.2188 11.5657 24.6188 10.2657 24.4187C9.16569 24.3187 11.7657 24.0187 15.8657 23.6188C19.9657 23.2188 23.6657 22.9187 24.1657 22.8187C24.5657 22.7188 24.8657 23.3187 24.8657 24.1188Z" fill="white"/>
</svg>
