<svg width="30" height="31" viewBox="0 0 30 31" fill="none" xmlns="http://www.w3.org/2000/svg">
<path d="M9.12906 2.6C8.72906 4.1 8.02906 4.5 6.62906 4.1C2.42906 3.1 -2.07094 11.2 1.02906 14.3C1.92906 15.2 1.92906 15.8 1.02906 16.7C-2.07094 19.8 2.42906 27.9 6.62906 26.9C8.02906 26.5 8.72906 26.9 9.12906 28.4C9.52906 30.2 10.4291 30.5 14.8291 30.5C19.2291 30.5 20.1291 30.2 20.5291 28.4C20.9291 27 21.6291 26.5 23.0291 26.8C26.9291 27.9 31.4291 20.1 28.8291 17C27.8291 15.8 27.8291 15.2 28.8291 14C31.4291 10.9 26.9291 3.1 23.0291 4.2C21.6291 4.5 20.9291 4 20.5291 2.6C20.1291 0.799999 19.2291 0.5 14.8291 0.5C10.4291 0.5 9.52906 0.799999 9.12906 2.6ZM16.8291 5C16.8291 6.7 19.8291 8.5 22.6291 8.5C24.8291 8.5 26.3291 11.1 24.8291 12C23.5291 12.8 23.5291 18.2 24.8291 19C26.3291 19.9 24.8291 22.5 22.6291 22.5C19.8291 22.5 16.8291 24.3 16.8291 26C16.8291 26.8 15.9291 27.5 14.8291 27.5C13.7291 27.5 12.8291 26.8 12.8291 26C12.8291 24.3 9.82906 22.5 7.02906 22.5C4.82906 22.5 3.32906 19.9 4.82906 19C6.12906 18.2 6.12906 12.8 4.82906 12C3.32906 11.1 4.82906 8.5 7.02906 8.5C9.82906 8.5 12.8291 6.7 12.8291 5C12.8291 4.2 13.7291 3.5 14.8291 3.5C15.9291 3.5 16.8291 4.2 16.8291 5Z" fill="white"/>
<path d="M10.3291 11.1C7.1291 14.5 7.2291 17 10.4291 20C13.8291 23.2 16.3291 23.1 19.3291 19.9C22.5291 16.5 22.4291 14 19.2291 11C15.8291 7.8 13.3291 7.9 10.3291 11.1ZM16.8291 16.5C15.5291 18.9 14.5291 19 12.8291 17C10.9291 14.8 13.3291 12.2 15.9291 13.6C17.4291 14.4 17.6291 15 16.8291 16.5Z" fill="white"/>
</svg>
