<svg width="40" height="40" viewBox="0 0 40 40" fill="none" xmlns="http://www.w3.org/2000/svg">
<path d="M16.5095 1.18526C16.1605 1.87156 15.8114 2.93219 15.8114 3.55609C15.8114 4.24238 14.6246 5.24063 13.019 6.11409C8.41156 8.48492 6.66632 11.4796 6.03803 18.2178C5.47955 24.7064 4.85126 26.4533 1.77963 30.2591C0.592858 31.7565 -0.175051 33.2538 0.0343789 33.6282C0.383428 34.1273 6.80594 34.3145 20 34.3145C33.1941 34.3145 39.6166 34.1273 39.9656 33.6282C40.1751 33.2538 39.4071 31.7565 38.2204 30.2591C35.1487 26.3909 34.5205 24.7064 33.962 18.1554C33.4733 13.1642 33.1243 11.9788 31.379 9.73272C30.262 8.36014 28.2376 6.61321 26.7716 5.92692C25.2357 5.17824 24.1886 4.24238 24.1886 3.55609C24.1886 1.12288 22.8622 -0.000148773 20 -0.000148773C17.9755 -0.000148773 17.068 0.311802 16.5095 1.18526Z" fill="#694C9F"/>
<path d="M4.78175 5.17846C2.61764 7.23734 0.523346 11.7918 0.313917 15.0361C0.104487 17.4069 0.313917 17.7813 1.57049 17.9685C2.82707 18.1556 3.10631 17.7813 3.45536 15.2857C3.94403 12.1662 5.47985 9.10904 7.57414 7.05017C9.04015 5.61519 8.83072 3.74349 7.22509 3.74349C6.73642 3.74349 5.61947 4.36739 4.78175 5.17846Z" fill="#694C9F"/>
<path d="M31.3786 4.74173C31.1691 5.24085 31.588 6.30149 32.4257 7.05017C34.52 9.10904 36.0558 12.1662 36.5445 15.2857C36.8935 17.7813 37.1728 18.1556 38.4294 17.9685C39.6859 17.7813 39.8954 17.4069 39.6859 15.0361C39.1973 8.67231 32.9842 0.99832 31.3786 4.74173Z" fill="#694C9F"/>
<path d="M13.7168 36.6854C13.7168 36.9974 14.4149 37.8085 15.3224 38.5571C17.6261 40.4912 22.6525 40.4912 24.7468 38.4947C25.5845 37.6837 26.2826 36.8726 26.2826 36.623C26.2826 36.3735 23.4902 36.1863 19.9997 36.1863C16.579 36.1863 13.7168 36.4359 13.7168 36.6854Z" fill="#694C9F"/>
</svg>
