<svg width="30" height="31" viewBox="0 0 30 31" fill="none" xmlns="http://www.w3.org/2000/svg">
<path fill-rule="evenodd" clip-rule="evenodd" d="M7.5 3C6.17392 3 4.90215 3.52678 3.96447 4.46447C3.02678 5.40215 2.5 6.67392 2.5 8C2.5 9.32608 3.02678 10.5979 3.96447 11.5355C4.90215 12.4732 6.17392 13 7.5 13H10V18H7.5C6.17392 18 4.90215 18.5268 3.96447 19.4645C3.02678 20.4021 2.5 21.6739 2.5 23C2.5 24.3261 3.02678 25.5979 3.96447 26.5355C4.90215 27.4732 6.17392 28 7.5 28C8.82608 28 10.0979 27.4732 11.0355 26.5355C11.9732 25.5979 12.5 24.3261 12.5 23V20.5H17.5V23C17.5 24.3261 18.0268 25.5979 18.9645 26.5355C19.9021 27.4732 21.1739 28 22.5 28C23.8261 28 25.0979 27.4732 26.0355 26.5355C26.9732 25.5979 27.5 24.3261 27.5 23C27.5 21.6739 26.9732 20.4021 26.0355 19.4645C25.0979 18.5268 23.8261 18 22.5 18H20V13H22.5C23.8261 13 25.0979 12.4732 26.0355 11.5355C26.9732 10.5979 27.5 9.32608 27.5 8C27.5 6.67392 26.9732 5.40215 26.0355 4.46447C25.0979 3.52678 23.8261 3 22.5 3C21.1739 3 19.9021 3.52678 18.9645 4.46447C18.0268 5.40215 17.5 6.67392 17.5 8V10.5H12.5V8C12.5 6.67392 11.9732 5.40215 11.0355 4.46447C10.0979 3.52678 8.82608 3 7.5 3ZM10 8V10.5H7.5C6.83696 10.5 6.20107 10.2366 5.73223 9.76777C5.26339 9.29893 5 8.66304 5 8C5 7.33696 5.26339 6.70107 5.73223 6.23223C6.20107 5.76339 6.83696 5.5 7.5 5.5C8.16304 5.5 8.79893 5.76339 9.26777 6.23223C9.73661 6.70107 10 7.33696 10 8ZM12.5 18V13H17.5V18H12.5ZM7.5 20.5H10V23C10 23.663 9.73661 24.2989 9.26777 24.7678C8.79893 25.2366 8.16304 25.5 7.5 25.5C6.83696 25.5 6.20107 25.2366 5.73223 24.7678C5.26339 24.2989 5 23.663 5 23C5 22.337 5.26339 21.7011 5.73223 21.2322C6.20107 20.7634 6.83696 20.5 7.5 20.5ZM20 23V20.5H22.5C23.163 20.5 23.7989 20.7634 24.2678 21.2322C24.7366 21.7011 25 22.337 25 23C25 23.663 24.7366 24.2989 24.2678 24.7678C23.7989 25.2366 23.163 25.5 22.5 25.5C21.837 25.5 21.2011 25.2366 20.7322 24.7678C20.2634 24.2989 20 23.663 20 23ZM22.5 10.5H20V8C20 7.33696 20.2634 6.70107 20.7322 6.23223C21.2011 5.76339 21.837 5.5 22.5 5.5C23.163 5.5 23.7989 5.76339 24.2678 6.23223C24.7366 6.70107 25 7.33696 25 8C25 8.66304 24.7366 9.29893 24.2678 9.76777C23.7989 10.2366 23.163 10.5 22.5 10.5Z" fill="white"/>
</svg>
