<svg width="31" height="31" viewBox="0 0 31 31" fill="none" xmlns="http://www.w3.org/2000/svg">
<path d="M6.7 6.73115C2.2 11.3312 0.5 13.7312 0.5 15.7312C0.5 17.2312 1 18.4312 1.5 18.4312C2.1 18.4312 2.5 20.2312 2.5 22.5312C2.5 28.8312 3.8 30.4312 9 30.4312H13.5V25.9312C13.5 22.1312 13.8 21.4312 15.5 21.4312C17.2 21.4312 17.5 22.1312 17.5 25.9312V30.4312H21.8C27.3 30.4312 28.5 29.1312 28.5 23.2312C28.5 20.6312 29 18.4312 29.5 18.4312C30.1 18.4312 30.5 17.1312 30.5 15.6312C30.5 13.5312 28.9 11.3312 24.2 6.63115C16.1 -1.46885 14.8 -1.46885 6.7 6.73115ZM21.9 9.33115C26.2 13.7312 27.3 15.3312 26.1 15.7312C25.1 16.1312 24.5 18.0312 24.3 22.0312C24.1 25.5312 23.5 27.9312 22.8 28.2312C22 28.4312 21.5 27.6312 21.5 26.0312C21.5 24.7312 21.1 22.3312 20.5 20.9312C19.6 18.6312 19.1 18.3312 15.3 18.6312L11 18.9312L10.7 23.7312C10.4 27.6312 10.1 28.5312 8.7 28.2312C7.4 28.0312 6.9 26.6312 6.7 22.1312C6.5 18.0312 5.9 16.1312 4.9 15.7312C3.7 15.3312 4.8 13.7312 9.1 9.33115C12.3 6.03115 15.2 3.43115 15.5 3.43115C15.8 3.43115 18.7 6.03115 21.9 9.33115Z" fill="white"/>
</svg>
