<svg width="30" height="31" viewBox="0 0 30 31" fill="none" xmlns="http://www.w3.org/2000/svg">
<path d="M13.3143 5.79622C5.51433 8.89622 0.214329 11.5962 0.0143292 12.4962C-0.185671 13.4962 1.71433 14.9962 5.31433 16.7962C10.0143 19.0962 11.2143 20.2962 13.5143 24.9962C15.3143 28.5962 16.8143 30.4962 17.8143 30.2962C19.3143 29.9962 29.7143 5.69622 29.8143 2.19622C29.8143 -0.403782 27.5143 0.0962162 13.3143 5.79622ZM16.6143 11.1962C12.3143 15.3962 11.6143 15.7962 9.21433 14.9962C7.71433 14.3962 6.51433 13.4962 6.71433 12.9962C6.81433 12.1962 19.0143 6.59622 20.8143 6.49622C21.1143 6.49622 19.2143 8.59622 16.6143 11.1962ZM22.8143 12.1962C21.6143 16.1962 18.0143 24.4962 17.4143 24.4962C17.1143 24.4962 16.2143 23.2962 15.4143 21.6962C14.0143 19.0962 14.1143 18.8962 18.6143 14.1962C21.1143 11.5962 23.3143 9.49622 23.4143 9.49622C23.6143 9.49622 23.3143 10.6962 22.8143 12.1962Z" fill="white"/>
</svg>
